<?xml version="1.0" encoding="UTF-8" standalone="no" ?>
<!DOCTYPE svg PUBLIC "-//W3C//DTD SVG 1.1//EN" "http://www.w3.org/Graphics/SVG/1.1/DTD/svg11.dtd">
<svg xmlns="http://www.w3.org/2000/svg" version="1.1" width="1080" height="1080" viewBox="0 0 1080 1080"
     xml:space="preserve">
<desc>Created with Fabric.js 5.2.4</desc>
<defs>
</defs>
<g transform="matrix(1 0 0 1 540 540)" id="ac5eeb31-534a-4991-9830-8db99aea7c44"  >
<rect style="stroke: none; stroke-width: 1; stroke-dasharray: none; stroke-linecap: butt; stroke-dashoffset: 0; stroke-linejoin: miter; stroke-miterlimit: 4; fill: rgb(255,255,255); fill-rule: nonzero; opacity: 1; visibility: hidden;" vector-effect="non-scaling-stroke"  x="-540" y="-540" rx="0" ry="0" width="1080" height="1080" />
</g>
<g transform="matrix(1 0 0 1 540 540)" id="caf2f17d-bc5f-44ee-976c-591556404cfc"  >
</g>
<g transform="matrix(33.23 0 0 33.23 540 540)"  >
<path style="stroke: rgb(245,244,245); stroke-width: 1; stroke-dasharray: none; stroke-linecap: butt; stroke-dashoffset: 0; stroke-linejoin: miter; stroke-miterlimit: 4; fill: rgb(245,244,245); fill-rule: nonzero; opacity: 1;" vector-effect="non-scaling-stroke"  transform=" translate(-16, -16)" d="M 16 30 L 7.564500000000001 20.051299999999998 C 7.5166 19.9942 7.2163 19.5998 7.2163 19.5998 C 5.775201521588341 17.701681419774374 4.99662239859898 15.383192724243456 5 13.000000000000007 C 5 6.92486775186127 9.924867751861271 1.9999999999999982 16 1.9999999999999982 C 22.07513224813873 1.9999999999999982 27 6.924867751861267 27 12.999999999999995 C 27.003586595941982 15.38221705306665 26.22553483073095 17.699826277658826 24.7852 19.597299999999997 L 24.7837 19.5998 C 24.7837 19.5998 24.4837 19.9942 24.439 20.047199999999997 z M 8.8125 18.395 C 8.8135 18.395699999999998 9.0459 18.7032 9.0991 18.7694 L 16 26.9079 L 22.91 18.7579 C 22.9539 18.7027 23.1883 18.393 23.1888 18.3922 C 24.36606323595222 16.8412841783374 25.002298332469454 14.947121806738327 25 13.000000000000004 C 25 8.02943725152286 20.970562748477143 4 16 4 C 11.02943725152286 4 7 8.029437251522857 7 12.999999999999998 C 6.9977874845572 14.948177028639364 7.634482335150951 16.84333218392393 8.8125 18.395 z" stroke-linecap="round" />
</g>
<g transform="matrix(33.23 0 0 33.23 541.27 458.2)"  >
<path style="stroke: none; stroke-width: 1; stroke-dasharray: none; stroke-linecap: butt; stroke-dashoffset: 0; stroke-linejoin: miter; stroke-miterlimit: 4; fill: rgb(245,244,245); fill-rule: nonzero; opacity: 1;" vector-effect="non-scaling-stroke"  transform=" translate(-16, -13.5)" d="M 18.303 9 C 17.584325600620236 9.000002725065553 16.896195562956418 9.290633882017962 16.3951 9.8058 L 16.0019 10.2112 L 15.604899999999999 9.8058 C 15.103820017781336 9.290643462641246 14.415706668071559 9.000018358884235 13.697049999999999 9.000018358884235 C 12.978393331928439 9.000018358884235 12.29027998221866 9.290643462641246 11.7892 9.8058 C 10.736912570400499 10.89145924805722 10.736912570400499 12.616540751942779 11.7892 13.7022 L 16.0019 18 L 20.2108 13.702200000000001 C 21.263087429599498 12.61654075194278 21.263087429599498 10.891459248057224 20.2108 9.805800000000001 C 19.70972863220137 9.290658755346012 19.0216396987974 9.00002972581623 18.302999999999997 9.000000000000002 z" stroke-linecap="round" />
</g>
<g transform="matrix(0 0 0 0 0 0)"  >
<g style=""   >
</g>
</g>
<g transform="matrix(0 0 0 0 0 0)"  >
<g style=""   >
</g>
</g>
<g transform="matrix(0 0 0 0 0 0)"  >
<g style=""   >
</g>
</g>
<g transform="matrix(0 0 0 0 0 0)"  >
<g style=""   >
</g>
</g>
<g transform="matrix(0 0 0 0 0 0)"  >
<g style=""   >
</g>
</g>
<g transform="matrix(0 0 0 0 0 0)"  >
<g style=""   >
</g>
</g>
<g transform="matrix(0 0 0 0 0 0)"  >
<g style=""   >
</g>
</g>
<g transform="matrix(0 0 0 0 0 0)"  >
<g style=""   >
</g>
</g>
<g transform="matrix(NaN NaN NaN NaN 0 0)"  >
<g style=""   >
</g>
</g>
<g transform="matrix(NaN NaN NaN NaN 0 0)"  >
<g style=""   >
</g>
</g>
<g transform="matrix(NaN NaN NaN NaN 0 0)"  >
<g style=""   >
</g>
</g>
</svg>