<svg xmlns="http://www.w3.org/2000/svg" width="1024" zoomAndPan="magnify" viewBox="0 0 768 791.249976" height="1055"
     preserveAspectRatio="xMidYMid meet" version="1.0"><defs><clipPath id="318027acf3"><path d="M 0.363281 15 L 767.636719 15 L 767.636719 784 L 0.363281 784 Z M 0.363281 15 "/></clipPath></defs><g clip-path="url(#318027acf3)"><path fill="#f5f4f5" d="M 448.847656 177.996094 L 448.90625 177.996094 C 454.441406 177.996094 459.863281 178.492188 465.125 179.441406 L 464.574219 179.359375 L 465.359375 179.359375 C 508.25 188.585938 539.929688 226.183594 539.929688 271.175781 C 539.929688 271.832031 539.921875 272.480469 539.910156 273.132812 L 539.910156 273.035156 L 539.910156 408.175781 L 644.613281 408.175781 C 711.90625 408.355469 766.53125 462.339844 767.734375 529.359375 L 767.734375 600.503906 C 767.734375 600.6875 767.734375 600.914062 767.734375 601.136719 C 767.734375 669.390625 739.960938 731.164062 695.101562 775.769531 L 687.585938 783.28125 L 439.878906 783.28125 L 366.078125 721.355469 L 252.710938 609.707031 C 236.339844 593.300781 226.214844 570.65625 226.214844 545.644531 C 226.214844 515.125 241.289062 488.128906 264.402344 471.6875 L 264.679688 471.5 L 265.429688 470.988281 C 279.890625 461.386719 297.648438 455.667969 316.746094 455.667969 C 331.992188 455.667969 346.386719 459.3125 359.101562 465.777344 L 358.570312 465.53125 L 358.570312 269.554688 C 358.566406 269.199219 358.5625 268.78125 358.5625 268.363281 C 358.5625 218.488281 398.972656 178.050781 448.84375 177.996094 Z M 455.261719 229.691406 C 453.332031 229.355469 451.109375 229.164062 448.84375 229.164062 C 427.183594 229.164062 409.625 246.722656 409.625 268.378906 C 409.625 268.601562 409.625 268.820312 409.628906 269.042969 L 409.628906 269.011719 L 409.628906 577.550781 L 347.285156 519.785156 C 339.527344 511.8125 328.695312 506.863281 316.707031 506.863281 C 308.179688 506.863281 300.234375 509.367188 293.570312 513.679688 L 293.738281 513.578125 C 283.75 520.851562 277.332031 532.5 277.332031 545.652344 C 277.332031 556.546875 281.738281 566.410156 288.863281 573.5625 L 288.859375 573.5625 L 401.40625 684.253906 L 458.636719 732.199219 L 666.203125 732.199219 C 697.550781 697.679688 716.746094 651.628906 716.746094 601.09375 L 716.746094 600.542969 L 716.746094 600.570312 L 716.746094 530.152344 C 715.703125 491.042969 683.929688 459.691406 644.75 459.328125 L 488.75 459.328125 L 488.75 272.25 C 488.757812 271.996094 488.761719 271.695312 488.761719 271.390625 C 488.761719 251.078125 474.5625 234.082031 455.546875 229.78125 L 455.261719 229.730469 Z M 313.109375 15.984375 L 313.34375 15.984375 C 348.449219 15.984375 380.304688 29.898438 403.699219 52.507812 L 403.660156 52.472656 C 428.019531 76.039062 443.28125 108.875 443.734375 145.277344 L 443.734375 145.601562 C 441.691406 224.1875 398.46875 292.238281 334.925781 329.183594 L 333.882812 329.746094 C 303.40625 349.996094 268.214844 366.652344 230.683594 377.890625 L 227.882812 378.613281 L 221.332031 380.316406 L 214.785156 378.578125 C 174.703125 366.632812 139.742188 350.003906 108.03125 328.878906 L 109.46875 329.777344 C 45.199219 292.078125 2.265625 224.078125 0.335938 145.90625 L 0.332031 145.636719 L 0.332031 145.261719 C 1.292969 73.679688 59.554688 16.019531 131.285156 16.019531 L 133.203125 16.019531 C 167.136719 16.019531 198.085938 28.804688 221.492188 49.820312 L 221.367188 49.710938 C 244.550781 28.808594 275.40625 16.019531 309.246094 16.019531 L 313.109375 16.019531 Z M 392.574219 145.738281 C 392.277344 123.582031 383.007812 103.648438 368.246094 89.355469 L 368.222656 89.335938 C 354.015625 75.597656 334.632812 67.128906 313.273438 67.128906 C 312.402344 67.128906 311.53125 67.144531 310.667969 67.171875 L 310.792969 67.167969 L 309.417969 67.167969 C 281.710938 67.167969 257.265625 81.125 242.726562 102.390625 L 242.546875 102.667969 L 221.402344 133.871094 L 200.222656 102.703125 C 185.429688 81.136719 160.910156 67.167969 133.128906 67.167969 L 131.296875 67.167969 C 87.71875 67.351562 52.363281 102.296875 51.527344 145.691406 L 51.527344 145.773438 C 51.527344 265.875 189.445312 317.027344 221.367188 327.253906 C 253.875 316.554688 282.097656 302.683594 307.941406 285.515625 L 306.632812 286.335938 C 356.710938 258.101562 390.464844 206.085938 392.570312 146.023438 Z M 392.574219 145.738281 " fill-opacity="1"/></g></svg>