<svg xmlns="http://www.w3.org/2000/svg" width="1068" zoomAndPan="magnify" viewBox="0 0 800.88 792.749993" height="1057"
     preserveAspectRatio="xMidYMid meet" version="1.0"><defs><clipPath id="467054d347"><path d="M 0.0664062 15 L 800.695312 15 L 800.695312 784 L 0.0664062 784 Z M 0.0664062 15 "/></clipPath></defs><g clip-path="url(#467054d347)"><path fill="#f5f4f5" d="M 781.714844 783.808594 L 2.53125 783.808594 L 2.53125 730.242188 L 781.714844 730.242188 Z M 632.804688 775.953125 L 201.21875 344.335938 C 192.019531 334.984375 179.230469 329.191406 165.089844 329.191406 L 165.0625 329.191406 C 150.710938 329.191406 137.726562 335.023438 128.339844 344.441406 L 37.882812 434.902344 L 0.03125 397.046875 L 90.378906 306.691406 C 109.460938 287.519531 135.863281 275.644531 165.042969 275.625 L 165.046875 275.625 C 194.140625 275.632812 220.453125 287.542969 239.378906 306.753906 L 670.660156 738.097656 Z M 762.789062 645.960938 L 558.53125 441.683594 C 549.125 432.386719 536.1875 426.644531 521.910156 426.644531 C 507.632812 426.644531 494.695312 432.386719 485.285156 441.6875 L 485.289062 441.683594 L 411.121094 516.214844 L 373.125 478.46875 L 447.582031 403.652344 C 466.667969 384.726562 492.953125 373.03125 521.964844 373.03125 C 550.980469 373.03125 577.261719 384.726562 596.355469 403.65625 L 800.644531 608.101562 Z M 408.191406 15.996094 C 467.753906 15.996094 516.035156 64.28125 516.035156 123.847656 C 516.035156 183.410156 467.753906 231.695312 408.191406 231.695312 C 348.632812 231.695312 300.351562 183.410156 300.351562 123.84375 C 300.410156 64.304688 348.65625 16.054688 408.1875 15.992188 L 408.195312 15.992188 Z M 408.191406 178.128906 C 438.167969 178.128906 462.472656 153.828125 462.472656 123.847656 C 462.472656 93.867188 438.171875 69.5625 408.195312 69.5625 C 378.214844 69.5625 353.914062 93.867188 353.914062 123.847656 C 353.957031 153.808594 378.234375 178.089844 408.191406 178.128906 L 408.195312 178.128906 Z M 408.191406 178.128906 " fill-opacity="1"/></g></svg>