<?xml version="1.0" encoding="UTF-8" standalone="no" ?>
<!DOCTYPE svg PUBLIC "-//W3C//DTD SVG 1.1//EN" "http://www.w3.org/Graphics/SVG/1.1/DTD/svg11.dtd">
<svg xmlns="http://www.w3.org/2000/svg" version="1.1" width="1080" height="1080" viewBox="0 0 1080 1080"
     xml:space="preserve">
<desc>Created with Fabric.js 5.2.4</desc>
<defs>
</defs>
<g transform="matrix(1 0 0 1 540 540)" id="328c6a23-1520-4eea-b086-a259821cddcb"  >
</g>
<g transform="matrix(1 0 0 1 540 540)" id="eebd46b6-584a-4382-b67e-acb53a898f0c"  >
<rect style="stroke: none; stroke-width: 1; stroke-dasharray: none; stroke-linecap: butt; stroke-dashoffset: 0; stroke-linejoin: miter; stroke-miterlimit: 4; fill: rgb(255,255,255); fill-rule: nonzero; opacity: 1; visibility: hidden;" vector-effect="non-scaling-stroke"  x="-540" y="-540" rx="0" ry="0" width="1080" height="1080" />
</g>
<g transform="matrix(1 0 0 1 540 540)"  >
<rect style="stroke: none; stroke-width: 1; stroke-dasharray: none; stroke-linecap: butt; stroke-dashoffset: 0; stroke-linejoin: miter; stroke-miterlimit: 4; fill: rgb(245,244,245); fill-rule: nonzero; opacity: 1; visibility: hidden;" vector-effect="non-scaling-stroke"  x="-540" y="-540" rx="0" ry="0" width="1080" height="1080" />
</g>
<!--<g transform="matrix(29.08 0 0 29.08 569.08 190.32)"  >-->
<!--<path style="stroke: none; stroke-width: 1; stroke-dasharray: none; stroke-linecap: butt; stroke-dashoffset: 0; stroke-linejoin: miter; stroke-miterlimit: 4; fill: rgb(245,244,245); fill-rule: nonzero; opacity: 1;" vector-effect="non-scaling-stroke"  transform=" translate(-19, -5.97)" d="M 10 5.2 L 28 5.2 L 28 6.75 L 10 6.75 z" stroke-linecap="round" />-->
<!--</g>-->
<g transform="matrix(29.08 0 0 29.08 539.9 540)"  >
<path style="stroke: none; stroke-width: 1; stroke-dasharray: none; stroke-linecap: butt; stroke-dashoffset: 0; stroke-linejoin: miter; stroke-miterlimit: 4; fill: rgb(245,244,245); fill-rule: nonzero; opacity: 1;" vector-effect="non-scaling-stroke"  transform=" translate(-18, -18)" d="M 29 8 L 9.86 8 C 9.344315131581904 7.9926909606503855 8.854014904543599 7.774963044532585 8.502791717050938 7.397303703142628 C 8.151568529558276 7.01964436175267 7.969931785868946 6.514859406120323 7.999999999999999 6.000000000000001 C 7.997419334309284 4.947871611534028 8.810449112294748 4.073646043807722 9.86 4 L 29 4 C 29.552284749830793 4 30 3.5522847498307932 30 3 C 30 2.4477152501692068 29.552284749830793 2 29 2 L 9.86 2 C 7.705719542112415 2.0754456358077604 5.998679303870734 3.844399250565979 6 6 C 5.990325660874218 6.16319007899019 5.990325660874217 6.326809921009811 5.999999999999999 6.490000000000001 C 5.990365188905692 6.569709907547428 5.990365188905692 6.650290092452573 6 6.73 L 6 30 C 5.998679303870734 32.15560074943402 7.705719542112416 33.92455436419224 9.86 34 L 29 34 C 29.552284749830793 34 30 33.5522847498308 30 33 L 30 9.25 C 30 9.25 30 9.19 30 9.16 C 30 9.13 30 9.1 30 9.07 C 30.001209529319162 8.505346606903771 29.5634451592262 8.036938730904303 29 8 z M 28 32 L 9.86 32 C 8.810449112294748 31.926353956192276 7.997419334309283 31.05212838846597 7.999999999999999 30 L 7.999999999999999 9.55 C 8.568589281549592 9.863667303122268 9.210910348062079 10.019067561149482 9.859999999999998 10 L 28 10 z" stroke-linecap="round" />
</g>
<g transform="matrix(29.08 0 0 29.08 540 540)"  >
<path style="stroke: none; stroke-width: 1; stroke-dasharray: none; stroke-linecap: butt; stroke-dashoffset: 0; stroke-linejoin: miter; stroke-miterlimit: 4; fill: none; fill-rule: nonzero; opacity: 1;" vector-effect="non-scaling-stroke"  transform=" translate(-18, -18)" d="M 0 0 L 36 0 L 36 36 L 0 36 z" stroke-linecap="round" />
</g>
<!--<g transform="matrix(1.32 0 0 1.32 540 625.09)"  >-->
<!--<path style="stroke: rgb(245,244,245); stroke-width: 1; stroke-dasharray: none; stroke-linecap: butt; stroke-dashoffset: 0; stroke-linejoin: miter; stroke-miterlimit: 10; fill: none; fill-rule: nonzero; opacity: 1;" vector-effect="non-scaling-stroke"  transform=" translate(-256, -256)" d="M 448 256 C 448 150 362 64 256 64 C 150 64 64 150 64 256 C 64 362 150 448 256 448 C 362 448 448 362 448 256 z" stroke-linecap="round" />-->
<!--</g>-->
<g transform="matrix(1.32 0 0 1.32 540 625.09)"  >
<path style="stroke: none; stroke-width: 1; stroke-dasharray: none; stroke-linecap: butt; stroke-dashoffset: 0; stroke-linejoin: miter; stroke-miterlimit: 4; fill: rgb(245,244,245); fill-rule: nonzero; opacity: 1;" vector-effect="non-scaling-stroke"  transform=" translate(-256, -256)" d="M 350.67 150.93 L 233.47000000000003 197.81 C 217.2036988182137 204.31504732829694 204.31504732829694 217.2036988182137 197.81 233.47000000000003 L 150.93000000000004 350.67 C 149.74050148935382 353.6416937317163 150.4368613014894 357.03635831021006 152.7002514956397 359.29974850436037 C 154.96364168979 361.56313869851067 158.35830626828377 362.2594985106462 161.33000000000004 361.07 L 278.53000000000003 314.19 C 294.79630118178636 307.68495267170306 307.6849526717031 294.7963011817863 314.19000000000005 278.53 L 361.07000000000005 161.32999999999998 C 362.25949851064627 158.3583062682837 361.5631386985107 154.96364168978994 359.2997485043604 152.70025149563963 C 357.0363583102101 150.43686130148933 353.6416937317164 149.74050148935376 350.6700000000001 150.92999999999998 z M 256 280 C 242.74516600406096 280 232 269.25483399593907 232 256 C 232 242.74516600406096 242.74516600406096 232 256 232 C 269.25483399593907 232 280 242.74516600406093 280 256 C 280 269.25483399593907 269.25483399593907 280 256 280 z" stroke-linecap="round" />
</g>
</svg>